<svg xmlns="http://www.w3.org/2000/svg" viewBox="0 0 512 512"><path  fill="#a8b2b9" d="M488.4 492h-21.93V173.54a26.91 26.91 0 0 0-26.89-26.89h-49.02a26.91 26.91 0 0 0-26.88 26.89V492h-55.7V317.82a26.91 26.91 0 0 0-26.88-26.88h-49.02a26.91 26.91 0 0 0-26.88 26.88V492h-55.7v-90.2a26.91 26.91 0 0 0-26.88-26.89H73.6a26.91 26.91 0 0 0-26.88 26.89V492H23.6a10 10 0 1 0 0 20h464.8a10 10 0 1 0 0-20zm-358.9 0H66.72v-90.2c0-3.8 3.08-6.89 6.88-6.89h49.02a6.9 6.9 0 0 1 6.88 6.89V492zm158.5 0h-62.8V317.82a6.9 6.9 0 0 1 6.89-6.88h49.02c3.8 0 6.88 3.09 6.88 6.88V492zm158.48 0h-62.8V173.54a6.9 6.9 0 0 1 6.89-6.89h49.02a6.9 6.9 0 0 1 6.89 6.89V492zm19.96-481.48A9.97 9.97 0 0 0 455.95.02l-.48-.02h-60.5a10 10 0 1 0 0 20h37.35l-98.85 98.86-37.28-37.28a10 10 0 0 0-14.15 0L102.27 261.35a10 10 0 0 0 14.15 14.14l172.7-172.7 37.28 37.28a10 10 0 0 0 14.14 0L446.47 34.14v33.81a10 10 0 1 0 20 0V11l-.03-.48z"/><circle cx="75.64" cy="303.31" r="10"/></svg>