<svg xmlns="http://www.w3.org/2000/svg" viewBox="0 0 483.3 483.3"><g fill="#a8b2b9"><path  d="M424.3 57.75H59.1c-32.6 0-59.1 26.5-59.1 59.1v249.6c0 32.6 26.5 59.1 59.1 59.1h365.1c32.6 0 59.1-26.5 59.1-59.1v-249.5c.1-32.6-26.4-59.2-59-59.2zm32.1 308.7c0 17.7-14.4 32.1-32.1 32.1H59.1c-17.7 0-32.1-14.4-32.1-32.1v-249.5c0-17.7 14.4-32.1 32.1-32.1h365.1c17.7 0 32.1 14.4 32.1 32.1v249.5h.1z"/><path d="M304.8 238.55l118.2-106c5.5-5 6-13.5 1-19.1-5-5.5-13.5-6-19.1-1l-163 146.3-31.8-28.4c-.1-.1-.2-.2-.2-.3a20 20 0 0 0-2.2-1.9L78.3 112.35c-5.6-5-14.1-4.5-19.1 1.1-5 5.6-4.5 14.1 1.1 19.1l119.6 106.9-119.1 111.5c-5.4 5.1-5.7 13.6-.6 19.1a13.53 13.53 0 0 0 19.1.7l120.9-113.1 32.8 29.3a13.5 13.5 0 0 0 18-.1l33.7-30.2 120.2 114.2c2.6 2.5 6 3.7 9.3 3.7a13.49 13.49 0 0 0 9.3-23.3l-118.7-112.7z"/></g></svg>