<svg xmlns="http://www.w3.org/2000/svg" viewBox="0 0 512 512"><g fill="#a8b2b9"><path d="M506.56 208.06l-242.7-177.7a13.3 13.3 0 0 0-15.72 0L5.44 208.07a13.3 13.3 0 1 0 15.72 21.47L256 57.6l234.84 171.94a13.28 13.28 0 0 0 18.6-2.88 13.3 13.3 0 0 0-2.88-18.59z"/><path d="M442.25 232.54a13.3 13.3 0 0 0-13.3 13.3V457.6H322.51V342.02c0-36.68-29.84-66.52-66.52-66.52s-66.52 29.84-66.52 66.52V457.6H83.06V245.85a13.3 13.3 0 0 0-26.6 0V470.9a13.3 13.3 0 0 0 13.3 13.3h133.02a13.3 13.3 0 0 0 13.3-13.3V342.01c0-22 17.91-39.91 39.92-39.91s39.91 17.9 39.91 39.9v128.9a13.3 13.3 0 0 0 13.3 13.3h133.04a13.3 13.3 0 0 0 13.3-13.3V245.85a13.3 13.3 0 0 0-13.3-13.3z"/></g></svg>