<svg xmlns="http://www.w3.org/2000/svg" viewBox="0 0 32 32"><g fill="#ed5454"><path d="M29.33 3H25V1a1 1 0 1 0-2 0v2h-6V1a1 1 0 1 0-2 0v2H9V1a1 1 0 1 0-2 0v2H2.67A2.67 2.67 0 0 0 0 5.67v23.66C0 30.81 1.2 32 2.67 32h26.66c1.48 0 2.67-1.2 2.67-2.67V5.67C32 4.19 30.8 3 29.33 3zM30 29.33c0 .37-.3.67-.67.67H2.67a.67.67 0 0 1-.67-.67V5.67c0-.37.3-.67.67-.67H7v2a1 1 0 1 0 2 0V5h6v2a1 1 0 1 0 2 0V5h6v2a1 1 0 1 0 2 0V5h4.33c.37 0 .67.3.67.67v23.66z"/><path d="M7 12h4v3H7zm0 5h4v3H7zm0 5h4v3H7zm7 0h4v3h-4zm0-5h4v3h-4zm0-5h4v3h-4zm7 10h4v3h-4zm0-5h4v3h-4zm0-5h4v3h-4z"/></g></svg>