<svg xmlns="http://www.w3.org/2000/svg" viewBox="0 0 58 58"><circle cx="29" cy="29" r="29" fill="#f76363"/><path d="M52.93 45.38A12.69 12.69 0 0 0 40.31 34h-5.95c-.75 0-1.36-.61-1.36-1.37V32c0-.58.38-1.08.93-1.29 5.8-2.18 9.77-11.7 8.97-18.43A14.04 14.04 0 0 0 29.08 0h-.05A14 14 0 0 0 15 14c0 6.02 3.8 14.76 9.14 16.73.53.2.86.71.86 1.27v.64c0 .75-.61 1.36-1.36 1.36h-5.95A12.69 12.69 0 0 0 5.07 45.38a28.98 28.98 0 0 0 47.86 0z" fill="#f7b563"/><path d="M33.5 6.61a17.86 17.86 0 0 1 9.44 6.32l-.04-.66A14.04 14.04 0 0 0 29.08 0h-.05a14 14 0 0 0-13.8 11.58c.18.26.35.51.54.75l.22-.25c2-2.38 5.34-2.93 8.18-1.67a7 7 0 0 0 9.32-3.8zm.42 24.09c-.54.2-.92.7-.92 1.29v.65c0 .75.61 1.36 1.37 1.36h5.94c.92 0 1.82.1 2.69.3V14h-.01c.01 6.24-3.75 14.7-9.07 16.7zM17.69 34h5.94c.76 0 1.37-.61 1.37-1.37V32c0-.56-.33-1.08-.85-1.27C18.8 28.75 15 20.03 15 14v20.3c.87-.2 1.77-.3 2.69-.3z" fill="#f7e714"/><path d="M38 40a10 10 0 0 0-9 5.67A10 10 0 0 0 20 40a1 1 0 1 0 0 2 8 8 0 0 1 8 8v3h2v-3a8 8 0 0 1 8-8 1 1 0 1 0 0-2z" fill="#d39450"/><path d="M52.93 45.38a12.67 12.67 0 0 0-5.28-9.03L29 53 10.35 36.35c-2.9 2.06-4.9 5.3-5.28 9.03a28.98 28.98 0 0 0 47.87 0z" fill="#25ae88"/><path d="M43 47v7.4c.69-.39 1.35-.8 2-1.23V47h-2zm-30 6.17c.65.43 1.31.84 2 1.22V47h-2v6.17z" fill="#229974"/></svg>