<svg xmlns="http://www.w3.org/2000/svg" viewBox="0 0 512 512"><g fill="#a8b2b9"><path d="M251.33 196.7a16.05 16.05 0 0 0-22.66-.03L176 249.37l-20.67-20.7a16.01 16.01 0 0 0-22.62 22.62l32 32c3.1 3.14 7.2 4.71 11.29 4.71s8.2-1.57 11.33-4.67l64-64a16.01 16.01 0 0 0 0-22.63zm0 128a16.05 16.05 0 0 0-22.66-.03L176 377.37l-20.67-20.67a16.01 16.01 0 0 0-22.62 22.62l32 32c3.1 3.11 7.2 4.68 11.29 4.68s8.2-1.57 11.33-4.67l64-64a16.01 16.01 0 0 0 0-22.63zM368 224h-64a16 16 0 0 0 0 32h64a16 16 0 0 0 0-32zm0 128h-64a16 16 0 0 0 0 32h64a16 16 0 0 0 0-32z"/><path d="M416 64h-64V48a16 16 0 0 0-16-16h-34.72C294.66 13.38 276.86 0 256 0s-38.66 13.38-45.28 32H176a16 16 0 0 0-16 16v16H96c-17.63 0-32 14.37-32 32v384c0 17.63 14.37 32 32 32h320c17.63 0 32-14.37 32-32V96c0-17.63-14.37-32-32-32zm-224 0h32a16 16 0 0 0 16-16 16 16 0 0 1 32 0 16 16 0 0 0 16 16h32v32H192V64zm224 416H96V96h64v16a16 16 0 0 0 16 16h160a16 16 0 0 0 16-16V96h64v384z"/></g></svg>