<svg xmlns="http://www.w3.org/2000/svg" width="512" height="512" viewBox="0 0 615.52 615.52"><path d="M602.53 549.74l-184.3-185.37a230.45 230.45 0 0 0 42.52-133.55C460.75 103.35 358 0 231.25 0 104.53 0 1.77 103.35 1.77 230.82s102.76 230.82 229.5 230.82c49.53 0 95.27-15.94 132.78-42.78l184.3 185.37a38.12 38.12 0 0 0 54.2 0 38.69 38.69 0 0 0 0-54.5zM355.9 319.76l-15.04 21.28-21.16 15.13a151.24 151.24 0 0 1-88.44 28.53c-84.37 0-153-69.03-153-153.88s68.63-153.88 153-153.88 153 69.03 153 153.88a153.1 153.1 0 0 1-28.36 88.94z" fill="#a8b2b9"/></svg>