<svg xmlns="http://www.w3.org/2000/svg" viewBox="0 0 512.62 512.62"><g fill="#a8b2b9"><path d="M512.33 96.31v-64c0-5.89-4.78-10.67-10.67-10.67h-96V10.98c0-5.9-4.78-10.67-10.67-10.67H117.66A10.67 10.67 0 0 0 107 10.98v10.66H11C5.1 21.64.33 26.43.33 32.31v62.93a118.62 118.62 0 0 0 26.77 84.27 111.47 111.47 0 0 0 79.9 34.14v21.33c0 39.36 44.37 71.57 106.66 81.92v88.75h-21.33a53.33 53.33 0 0 0-52.27 42.66h-33.07a10.67 10.67 0 0 0-10.66 10.67v42.67c0 5.89 4.77 10.66 10.66 10.66h298.67c5.9 0 10.67-4.77 10.67-10.66v-42.67c0-5.9-4.78-10.67-10.67-10.67h-43.73a53.33 53.33 0 0 0-52.27-42.66h-10.67V316.9c62.3-10.35 106.67-42.56 106.67-81.92v-21.33a111.47 111.47 0 0 0 79.79-33.71 117.86 117.86 0 0 0 26.88-83.63zm-405.34 96a90.56 90.56 0 0 1-64-26.56 98.99 98.99 0 0 1-21.33-69.44V42.98H107V192.3zm245.34 277.33h42.66v21.34H117.66v-21.34h234.67zm-42.67-42.66a32 32 0 0 1 30.19 21.33h-177.7a32 32 0 0 1 30.18-21.33h117.33zM235 405.64v-86.29c6.94.53 14.08.96 21.34.96s14.4 0 21.33-.96v86.3H235zm149.34-170.66c0 34.67-58.67 64-128 64s-128-29.34-128-64V21.65h256v213.33zm85.33-69.55a90.56 90.56 0 0 1-64 26.88V42.98H491v54.4a98.35 98.35 0 0 1-21.33 68.05z"/><path d="M341.66 96.31H363V53.65c0-5.9-4.77-10.67-10.66-10.67h-42.67V64.3h32v32zm0 21.33h21.33v21.33h-21.33z"/></g></svg>