<svg xmlns="http://www.w3.org/2000/svg" viewBox="0 0 470.39 470.39"><path fill="#a8b2b9" d="M83.43 63.75v162.52a8.13 8.13 0 1 0 16.26 0V63.75a8.13 8.13 0 1 0-16.26 0zm16.26 342.89v-53.37a8.13 8.13 0 1 0-16.26 0v53.37a8.13 8.13 0 1 0 16.26 0zm144.39-294.17V63.75a8.13 8.13 0 1 0-16.26 0v48.72a8.13 8.13 0 1 0 16.26 0zm0 294.17V242.53a8.13 8.13 0 1 0-16.26 0v164.11a8.13 8.13 0 1 0 16.26 0zM378.84 55.62a8.13 8.13 0 0 0-8.13 8.13V196.8a8.13 8.13 0 1 0 16.26 0V63.75a8.13 8.13 0 0 0-8.13-8.13zm8.13 351.02v-80.8a8.13 8.13 0 1 0-16.26 0v80.8a8.13 8.13 0 1 0 16.26 0zm-246.21-69.3a42.4 42.4 0 0 0 42.35-42.35 42.4 42.4 0 0 0-42.35-42.35h-98.4A42.4 42.4 0 0 0 0 294.99a42.4 42.4 0 0 0 42.36 42.35h98.4zm-124.5-42.35c0-14.39 11.7-26.1 26.1-26.1h98.4c14.38 0 26.09 11.71 26.09 26.1s-11.7 26.1-26.1 26.1h-98.4a26.13 26.13 0 0 1-26.1-26.1zM327.5 179.47a42.4 42.4 0 0 0-42.36-42.35h-98.4a42.4 42.4 0 0 0-42.34 42.35 42.4 42.4 0 0 0 42.35 42.35h98.4a42.4 42.4 0 0 0 42.35-42.34zm-42.36 26.1h-98.4c-14.37 0-26.09-11.7-26.09-26.1s11.7-26.1 26.1-26.1h98.4a26.14 26.14 0 0 1 26.1 26.1c0 14.4-11.71 26.1-26.1 26.1zm142.9 12.83h-98.4a42.4 42.4 0 0 0-42.35 42.36 42.4 42.4 0 0 0 42.35 42.35h98.4a42.4 42.4 0 0 0 42.35-42.35 42.4 42.4 0 0 0-42.35-42.36zm0 68.46h-98.4a26.12 26.12 0 0 1-26.1-26.1 26.13 26.13 0 0 1 26.1-26.1h98.4c14.4 0 26.1 11.71 26.1 26.1s-11.71 26.1-26.1 26.1z" /></svg>